<svg xmlns="http://www.w3.org/2000/svg" viewBox="0 0 96 64" role="img" aria-labelledby="title desc">
  <title id="title">APE monogram</title>
  <desc id="desc">Geometric APE wordmark enclosed in a minimal microchip.</desc>
  <g fill="none" stroke="#191915" stroke-linecap="round" stroke-linejoin="round">
    <rect x="13" y="11" width="70" height="42" rx="8" fill="#f3efe5" stroke-width="2"/>
    <g stroke-width="2">
      <path d="M13 20H7M13 28H7M13 36H7M13 44H7M83 20h6M83 28h6M83 36h6M83 44h6"/>
      <path d="M28 11V6M40 11V6M56 11V6M68 11V6M28 53v5M40 53v5M56 53v5M68 53v5"/>
    </g>
    <g stroke-width="3.2">
      <path d="M23 43 31 21l8 22M26.5 34h9"/>
      <path d="M44 43V21h7.5c5 0 8 2.7 8 6.7s-3 6.8-8 6.8H44"/>
      <path d="M75 21H64v22h11M64 32h9"/>
    </g>
  </g>
</svg>
